<svg width="11" height="11" viewBox="0 0 11 11" fill="none" xmlns="http://www.w3.org/2000/svg">
<path d="M4.95 3.85H6.05V2.75H4.95M5.5 9.9C3.0745 9.9 1.1 7.9255 1.1 5.5C1.1 3.0745 3.0745 1.1 5.5 1.1C7.9255 1.1 9.9 3.0745 9.9 5.5C9.9 7.9255 7.9255 9.9 5.5 9.9ZM5.5 0C4.77773 0 4.06253 0.142262 3.39524 0.418663C2.72795 0.695063 2.12163 1.10019 1.61091 1.61091C0.579463 2.64236 0 4.04131 0 5.5C0 6.95869 0.579463 8.35764 1.61091 9.38909C2.12163 9.89981 2.72795 10.3049 3.39524 10.5813C4.06253 10.8577 4.77773 11 5.5 11C6.95869 11 8.35764 10.4205 9.38909 9.38909C10.4205 8.35764 11 6.95869 11 5.5C11 4.77773 10.8577 4.06253 10.5813 3.39524C10.3049 2.72795 9.89981 2.12163 9.38909 1.61091C8.87837 1.10019 8.27205 0.695063 7.60476 0.418663C6.93747 0.142262 6.22227 0 5.5 0ZM4.95 8.25H6.05V4.95H4.95V8.25Z" fill="#222222"/>
</svg>
