<svg width="60" height="60" viewBox="0 0 60 60" fill="none" xmlns="http://www.w3.org/2000/svg">
<rect x="0.155273" y="0.600586" width="59.1274" height="59.1274" rx="8.01728" fill="#F8FAFE"/>
<path fill-rule="evenodd" clip-rule="evenodd" d="M36.8344 37.3398C37.4257 36.4379 37.6462 35.9769 38.0971 34.9647C34.77 33.702 34.2388 28.9618 37.5259 27.1479C36.5238 25.8851 35.1107 25.1536 33.7778 25.1536C32.8158 25.1536 32.1543 25.4041 31.5631 25.6346C31.062 25.825 30.611 25.9954 30.0498 25.9954C29.4485 25.9954 28.9174 25.805 28.3562 25.6045C27.7448 25.3841 27.1034 25.1536 26.3017 25.1536C24.8085 25.1536 23.2151 26.0655 22.2029 27.6289C20.7798 29.8337 21.0304 33.9625 23.3253 37.4901C24.1471 38.7529 25.2495 40.1659 26.6825 40.186C27.2838 40.196 27.6747 40.0156 28.1056 39.8252C28.5967 39.6047 29.1278 39.3642 30.0598 39.3642C30.9918 39.3542 31.513 39.6047 32.004 39.8252C32.4249 40.0156 32.8057 40.196 33.397 40.186C34.8501 40.1659 36.0127 38.6026 36.8344 37.3398Z" fill="black"/>
<path fill-rule="evenodd" clip-rule="evenodd" d="M33.5672 20.1428C33.7275 21.2452 33.2766 22.3376 32.6853 23.0992C32.0539 23.921 30.9516 24.5623 29.8893 24.5223C29.6989 23.46 30.1899 22.3676 30.7912 21.636C31.4627 20.8343 32.5951 20.213 33.5672 20.1428Z" fill="black"/>
</svg>
