<svg width="21" height="21" viewBox="0 0 21 21" fill="none" xmlns="http://www.w3.org/2000/svg">
<rect width="21" height="21" fill="#1E1E1E"/>
<path d="M10.0245 20.0449C15.5586 20.0449 20.0449 15.5586 20.0449 10.0245C20.0449 4.49038 15.5586 0.00408173 10.0245 0.00408173C4.49038 0.00408173 0.00408173 4.49038 0.00408173 10.0245C0.00408173 15.5586 4.49038 20.0449 10.0245 20.0449Z" fill="#27AE60"/>
<path d="M8.60161 13.6118C8.40121 13.6118 8.21082 13.5317 8.07053 13.3914L5.23475 10.5556C4.94416 10.265 4.94416 9.78402 5.23475 9.49343C5.52534 9.20284 6.00632 9.20284 6.29692 9.49343L8.60161 11.7981L13.7521 6.64763C14.0427 6.35704 14.5237 6.35704 14.8143 6.64763C15.1049 6.93822 15.1049 7.4192 14.8143 7.7098L9.1327 13.3914C8.99241 13.5317 8.80202 13.6118 8.60161 13.6118Z" fill="white"/>
</svg>
