<svg width="11" height="11" viewBox="0 0 11 11" fill="none" xmlns="http://www.w3.org/2000/svg">
<path d="M5.676 10.222C4.91333 10.222 4.21667 10.0973 3.586 9.848C2.95533 9.59867 2.41267 9.25033 1.958 8.803C1.50333 8.35567 1.15133 7.82767 0.902 7.219C0.652667 6.603 0.528 5.932 0.528 5.206C0.528 4.48 0.652667 3.81267 0.902 3.204C1.15133 2.59533 1.50333 2.06733 1.958 1.62C2.42 1.17267 2.97 0.828 3.608 0.586C4.246 0.344 4.95 0.223 5.72 0.223C6.47533 0.223 7.16467 0.340333 7.788 0.575C8.41133 0.809667 8.95033 1.14333 9.405 1.576C9.867 2.00133 10.2227 2.511 10.472 3.105C10.7213 3.69167 10.846 4.34067 10.846 5.052C10.846 5.67533 10.769 6.21067 10.615 6.658C10.461 7.10533 10.2373 7.45367 9.944 7.703C9.658 7.945 9.306 8.066 8.888 8.066C8.47733 8.066 8.14733 7.94133 7.898 7.692C7.656 7.44267 7.535 7.087 7.535 6.625V5.877L7.59 5.206L7.491 3.941V2.478H8.448V6.438C8.448 6.73133 8.50667 6.93667 8.624 7.054C8.74867 7.17133 8.899 7.23 9.075 7.23C9.28767 7.23 9.471 7.14567 9.625 6.977C9.78633 6.80833 9.90367 6.56267 9.977 6.24C10.0577 5.91 10.098 5.51767 10.098 5.063C10.098 4.447 9.99167 3.88967 9.779 3.391C9.57367 2.885 9.273 2.44867 8.877 2.082C8.48833 1.71533 8.02633 1.43667 7.491 1.246C6.963 1.048 6.37267 0.949 5.72 0.949C5.06733 0.949 4.46967 1.05533 3.927 1.268C3.39167 1.47333 2.92967 1.76667 2.541 2.148C2.15233 2.522 1.85167 2.96933 1.639 3.49C1.43367 4.01067 1.331 4.58267 1.331 5.206C1.331 5.83667 1.43367 6.416 1.639 6.944C1.84433 7.46467 2.13767 7.912 2.519 8.286C2.90767 8.66733 3.366 8.96067 3.894 9.166C4.42933 9.37867 5.02333 9.485 5.676 9.485C6.01333 9.485 6.369 9.44467 6.743 9.364C7.117 9.29067 7.469 9.16967 7.799 9.001L8.041 9.705C7.70367 9.87367 7.32233 10.002 6.897 10.09C6.47167 10.178 6.06467 10.222 5.676 10.222ZM5.478 8.066C4.95733 8.066 4.49533 7.945 4.092 7.703C3.68867 7.45367 3.36967 7.11633 3.135 6.691C2.90033 6.26567 2.783 5.78167 2.783 5.239C2.783 4.689 2.90033 4.205 3.135 3.787C3.36967 3.36167 3.68867 3.03167 4.092 2.797C4.49533 2.555 4.95733 2.434 5.478 2.434C5.984 2.434 6.42767 2.544 6.809 2.764C7.19033 2.97667 7.48733 3.292 7.7 3.71C7.92 4.128 8.03 4.63767 8.03 5.239C8.03 5.84033 7.92367 6.35 7.711 6.768C7.49833 7.186 7.20133 7.50867 6.82 7.736C6.43867 7.956 5.99133 8.066 5.478 8.066ZM5.632 7.208C5.99133 7.208 6.31033 7.131 6.589 6.977C6.875 6.81567 7.09867 6.58833 7.26 6.295C7.42867 5.99433 7.513 5.64233 7.513 5.239C7.513 4.82833 7.42867 4.47633 7.26 4.183C7.09867 3.88967 6.875 3.666 6.589 3.512C6.31033 3.358 5.99133 3.281 5.632 3.281C5.26533 3.281 4.939 3.36167 4.653 3.523C4.37433 3.677 4.15433 3.90067 3.993 4.194C3.839 4.48733 3.762 4.83567 3.762 5.239C3.762 5.635 3.839 5.97967 3.993 6.273C4.15433 6.56633 4.37433 6.79733 4.653 6.966C4.939 7.12733 5.26533 7.208 5.632 7.208Z" fill="black"/>
</svg>
