<svg width="20" height="11" viewBox="0 0 20 11" fill="none" xmlns="http://www.w3.org/2000/svg">
<path d="M19.525 2.3L11.125 10.725C11.025 10.825 10.9166 10.8957 10.8 10.937C10.6833 10.979 10.5583 11 10.425 11C10.2916 11 10.1666 10.979 10.05 10.937C9.93328 10.8957 9.82495 10.825 9.72495 10.725L1.29995 2.3C1.06662 2.06667 0.949951 1.775 0.949951 1.425C0.949951 1.075 1.07495 0.775001 1.32495 0.525001C1.57495 0.275001 1.86662 0.150001 2.19995 0.150001C2.53328 0.150001 2.82495 0.275 3.07495 0.525L10.425 7.875L17.775 0.525C18.0083 0.291666 18.2956 0.174999 18.637 0.174999C18.979 0.174999 19.275 0.299999 19.525 0.549999C19.775 0.799999 19.9 1.09167 19.9 1.425C19.9 1.75833 19.775 2.05 19.525 2.3Z" fill="#309CFF"/>
</svg>
