<svg width="61" height="60" viewBox="0 0 61 60" fill="none" xmlns="http://www.w3.org/2000/svg">
<rect x="0.997559" y="0.600586" width="59.1274" height="59.1274" rx="8.01728" fill="#F8FAFE"/>
<path d="M41.0842 34.5733C41.0842 38.4035 38.8008 40.687 34.9705 40.687H33.7183C33.1396 40.687 32.666 40.2134 32.666 39.6347V33.5631C32.666 33.279 32.8975 33.037 33.1816 33.037L35.0336 33.0054C35.181 32.9949 35.3072 32.8897 35.3388 32.7423L35.7071 30.7325C35.7387 30.5431 35.5913 30.3642 35.3914 30.3642L33.1501 30.3958C32.8554 30.3958 32.624 30.1643 32.6134 29.8802L32.5713 27.3021C32.5713 27.1337 32.7081 26.9864 32.887 26.9864L35.4124 26.9443C35.5913 26.9443 35.7281 26.8076 35.7281 26.6287L35.686 24.1032C35.686 23.9243 35.5493 23.7875 35.3704 23.7875L32.5292 23.8296C30.7825 23.8612 29.3935 25.2923 29.4251 27.039L29.4777 29.9328C29.4882 30.2274 29.2567 30.4589 28.9621 30.4694L27.6993 30.4905C27.5204 30.4905 27.3837 30.6273 27.3837 30.8061L27.4152 32.8055C27.4152 32.9844 27.552 33.1211 27.7309 33.1211L28.9936 33.1001C29.2883 33.1001 29.5197 33.3316 29.5303 33.6157L29.625 39.6137C29.6355 40.2029 29.162 40.687 28.5727 40.687H26.1525C22.3222 40.687 20.0388 38.4035 20.0388 34.5628V25.7553C20.0388 21.925 22.3222 19.6416 26.1525 19.6416H34.9705C38.8008 19.6416 41.0842 21.925 41.0842 25.7553V34.5733Z" fill="#2346FF"/>
</svg>
