<svg width="38" height="38" viewBox="0 0 38 38" fill="none" xmlns="http://www.w3.org/2000/svg">
<g filter="url(#filter0_d_18_10294)">
<circle cx="19" cy="19" r="15" fill="white"/>
</g>
<path opacity="0.4" d="M19 21.9348H14.4348" stroke="#130F26" stroke-width="1.5" stroke-linecap="round" stroke-linejoin="round"/>
<path fill-rule="evenodd" clip-rule="evenodd" d="M24.8696 21.9348C24.8696 22.8352 24.1396 23.5652 23.2391 23.5652C22.3387 23.5652 21.6087 22.8352 21.6087 21.9348C21.6087 21.0337 22.3387 20.3044 23.2391 20.3044C24.1396 20.3044 24.8696 21.0337 24.8696 21.9348Z" stroke="#130F26" stroke-width="1.5" stroke-linecap="round" stroke-linejoin="round"/>
<path opacity="0.4" d="M20.3044 14.7609H24.8696" stroke="#130F26" stroke-width="1.5" stroke-linecap="round" stroke-linejoin="round"/>
<path fill-rule="evenodd" clip-rule="evenodd" d="M14.4348 14.7609C14.4348 15.662 15.1648 16.3913 16.0652 16.3913C16.9657 16.3913 17.6957 15.662 17.6957 14.7609C17.6957 13.8604 16.9657 13.1304 16.0652 13.1304C15.1648 13.1304 14.4348 13.8604 14.4348 14.7609Z" stroke="#130F26" stroke-width="1.5" stroke-linecap="round" stroke-linejoin="round"/>
<defs>
<filter id="filter0_d_18_10294" x="0" y="0" width="38" height="38" filterUnits="userSpaceOnUse" color-interpolation-filters="sRGB">
<feFlood flood-opacity="0" result="BackgroundImageFix"/>
<feColorMatrix in="SourceAlpha" type="matrix" values="0 0 0 0 0 0 0 0 0 0 0 0 0 0 0 0 0 0 127 0" result="hardAlpha"/>
<feOffset/>
<feGaussianBlur stdDeviation="2"/>
<feComposite in2="hardAlpha" operator="out"/>
<feColorMatrix type="matrix" values="0 0 0 0 0 0 0 0 0 0 0 0 0 0 0 0 0 0 0.25 0"/>
<feBlend mode="normal" in2="BackgroundImageFix" result="effect1_dropShadow_18_10294"/>
<feBlend mode="normal" in="SourceGraphic" in2="effect1_dropShadow_18_10294" result="shape"/>
</filter>
</defs>
</svg>
