<svg width="42" height="47" viewBox="0 0 42 47" fill="none" xmlns="http://www.w3.org/2000/svg">
<path d="M19.4912 0.389474C20.0285 0.210786 20.5866 -0.164949 21.1668 0.0810533C25.6364 1.66844 30.0339 3.45043 34.4913 5.07332C36.6343 5.90801 38.8447 6.58483 40.9204 7.5823C41.4883 7.83442 41.4712 8.69727 41.0122 9.0522C40.5679 9.37286 40.0441 9.55155 39.5521 9.78408C37.1459 10.8954 34.7422 12.0116 32.347 13.1461C32.3531 15.3149 32.358 17.4848 32.3642 19.6536C32.3874 20.0269 32.2002 20.3708 32.2197 20.7428C32.221 22.4893 32.2222 24.2346 32.2148 25.9811C32.0227 28.506 31.0277 30.9672 29.3534 32.8765C31.7131 34.5214 33.5097 36.8884 34.6663 39.5076C35.4104 41.1182 35.7764 42.877 35.9698 44.632C36.0138 45.2905 36.0603 46.0579 35.5622 46.5707C35.2929 46.7922 34.9649 47.0051 34.6039 46.999C25.623 46.999 16.6432 46.9978 7.66354 46.999C7.03078 47.026 6.53511 46.4899 6.29033 45.9575C6.22301 45.5132 6.25239 45.0604 6.26707 44.6137C6.63302 41.3544 7.78348 38.1172 9.90571 35.5825C10.6462 34.7001 11.4772 33.8911 12.3963 33.1972C10.6682 31.2903 9.4798 28.8426 9.29376 26.2589C9.27908 23.6887 9.29254 21.1173 9.29009 18.5472C9.2803 17.8092 9.39657 17.0785 9.4186 16.3442C9.30233 15.3038 9.36842 14.2574 9.34761 13.2134C8.55943 12.8573 7.78225 12.4791 6.98428 12.1462C6.45678 11.9381 5.98558 11.5906 5.42626 11.4645C5.3308 12.6174 5.38832 13.7789 5.66859 14.9049C6.15692 15.0505 6.66729 15.3455 6.7909 15.8791C6.94878 16.2475 6.7603 16.6281 6.63669 16.9745C7.16786 17.8912 7.24864 18.978 7.28046 20.0134C7.30861 21.5824 7.2058 23.1551 6.96836 24.7058C6.5963 24.5185 6.35275 23.9568 5.87298 24.1293C5.43727 24.2505 5.04196 24.4745 4.63562 24.6654C4.64052 24.237 4.72129 23.8173 4.81064 23.3999C5.21085 21.4478 5.53396 19.4822 5.81178 17.5105C5.26715 17.5056 4.65398 17.3196 4.42267 16.7762C4.08732 16.1618 4.42879 15.4495 4.94037 15.0578C4.85592 14.3015 4.65643 13.5586 4.64786 12.7949C4.6393 12.2282 4.67479 11.6615 4.7213 11.0961C3.364 10.5111 2.01037 9.91014 0.697132 9.23088C0.245515 9.04363 0.16841 8.45249 0.340979 8.04983C0.574743 7.59454 1.10224 7.444 1.55141 7.29101C4.28681 6.23479 7.02711 5.17979 9.76986 4.13948C13.0083 2.88255 16.2345 1.59623 19.4912 0.389474ZM20.3712 0.778673C17.4682 1.83489 14.6006 2.99025 11.7158 4.09542C8.18247 5.46863 4.61849 6.76474 1.10958 8.19792C0.847671 8.2738 0.750983 8.65565 1.02146 8.78661C1.66523 9.14276 2.36163 9.39611 3.02498 9.71677C3.64794 9.96767 4.23419 10.3238 4.89631 10.4658C5.01503 9.9897 5.12763 9.51116 5.29163 9.04975C5.50092 9.03384 5.84973 8.95428 5.90725 9.24312C5.8534 9.79143 5.59638 10.3079 5.6282 10.8685C7.0724 11.4816 8.47987 12.1756 9.91305 12.8108C9.99995 12.5244 10.0514 12.1707 10.3794 12.0605C13.1454 10.8036 16.1769 10.259 19.1889 10.0289C20.649 10.0227 22.1177 9.94931 23.5717 10.1072C25.9338 10.2687 28.2702 10.7962 30.4855 11.6285C30.8857 11.7815 31.3202 11.8965 31.6568 12.1756C31.7596 12.3494 31.7963 12.5525 31.8636 12.7422C34.7091 11.3654 37.6122 10.1096 40.4688 8.75969C40.6169 8.67157 40.6989 8.51246 40.8078 8.38517C40.508 7.94212 39.9315 7.89072 39.4787 7.68266C36.1644 6.40002 32.8403 5.14553 29.5076 3.91184C26.9827 2.9107 24.4235 1.99889 21.8889 1.021C21.4066 0.854554 20.8877 0.5547 20.3712 0.778673ZM16.4095 10.8734C14.3264 11.2393 12.2409 11.746 10.328 12.67C10.3292 15.1203 10.3182 17.5693 10.3414 20.0183C11.0109 19.831 11.6302 19.5018 12.2935 19.2925C14.7132 18.4909 17.2515 18.0392 19.7984 17.9572C21.015 17.7773 22.2364 17.9829 23.4554 18.0074C25.5691 18.2265 27.6791 18.5986 29.6949 19.2876C30.2774 19.4871 30.8392 19.7503 31.4352 19.913C31.4524 17.7847 31.423 15.6563 31.434 13.528C31.4377 13.2134 31.4242 12.8989 31.3936 12.5868C28.7219 11.3727 25.798 10.8048 22.8876 10.5821C20.7262 10.4254 18.5488 10.5233 16.4095 10.8734ZM10.6804 20.8089C10.6768 22.258 10.678 23.7071 10.6804 25.1562C10.6596 26.4719 10.9301 27.7839 11.4148 29.0041C12.87 32.7737 16.8378 35.4394 20.8877 35.2692C22.3564 35.3072 23.8079 34.9057 25.1273 34.2828C27.5726 33.1372 29.4537 30.9207 30.3154 28.3763C30.8196 26.9113 30.8514 25.3434 30.8343 23.8099C30.8221 22.7929 30.8576 21.7733 30.8196 20.7575C30.8172 20.5311 30.5871 20.4895 30.4218 20.4148C27.4233 19.2913 24.2228 18.6377 21.0125 18.7246C20.2782 18.7418 19.539 18.6904 18.8095 18.7883C16.0166 18.9963 13.2102 19.5789 10.6804 20.8089ZM21.7518 36.6571C18.8365 36.9533 15.8404 36.028 13.5431 34.2216C12.9716 34.5667 12.4734 35.0147 12.0022 35.4846C10.1713 37.2409 8.86418 39.5149 8.20327 41.9615C7.90464 43.1168 7.65007 44.3028 7.69536 45.5034C16.6469 45.5108 25.5985 45.5059 34.55 45.5059C34.577 44.9539 34.55 44.3995 34.4264 43.8585C33.8157 39.9176 31.6262 36.1419 28.2458 33.9584C26.4026 35.4614 24.1347 36.4711 21.7518 36.6571Z" fill="white"/>
<path d="M12.4968 22.584C12.4748 21.4495 13.4612 20.4949 14.5358 20.3198C15.7573 20.288 16.9799 20.3186 18.2026 20.3051C19.0471 20.2709 19.8071 20.8351 20.233 21.5327C20.6981 22.2316 20.3677 23.1054 20.5513 23.8765C20.8891 23.8814 21.2268 23.8789 21.5634 23.8495C21.5646 23.3514 21.5426 22.8508 21.5757 22.3539C21.6662 21.3516 22.545 20.5573 23.4886 20.3321C24.7431 20.2721 26.0025 20.326 27.2582 20.3064C28.1308 20.2684 28.9092 20.873 29.3339 21.5964C29.6423 22.0725 29.5249 22.6624 29.5481 23.1984C29.5224 24.1347 29.5934 25.0759 29.5089 26.0085C29.2103 27.0084 28.2226 27.8982 27.1358 27.8015C26.071 27.7942 25.0075 27.8039 23.9427 27.7978C22.567 27.7942 21.3566 26.4564 21.5524 25.0783C21.2171 25.0747 20.8805 25.0734 20.5451 25.0783C20.4729 25.5165 20.517 25.9889 20.2906 26.3879C19.9369 27.0647 19.2894 27.6277 18.5318 27.7819C17.3581 27.8235 16.182 27.7856 15.007 27.8003C13.8333 27.8529 12.7024 26.9227 12.5054 25.7723C12.4748 24.7099 12.4956 23.6464 12.4968 22.584ZM14.5689 21.0566C14.0108 21.1729 13.5053 21.5719 13.2948 22.1079C13.0317 22.6807 13.1443 23.3245 13.1222 23.9328C13.1528 24.6218 13.006 25.3562 13.3303 25.9987C13.6179 26.6926 14.4036 27.0696 15.1282 27.0402C16.0326 27.0366 16.9359 27.039 17.8391 27.039C18.5918 27.0598 19.3824 26.6278 19.6566 25.9069C19.8818 25.3158 19.8059 24.6732 19.8181 24.0552C19.8059 23.4346 19.8818 22.7945 19.6762 22.1973C19.451 21.4813 18.7032 20.9844 17.9591 21.026C16.8294 21.0419 15.6961 20.9893 14.5689 21.0566ZM23.7505 21.0591C23.0896 21.1753 22.5058 21.6845 22.3308 22.338C22.2402 23.4334 22.2769 24.5447 22.3075 25.6438C22.5193 26.4638 23.343 27.0708 24.1874 27.0488C25.1298 27.0488 26.0735 27.0512 27.0159 27.0476C28.0035 27.061 28.99 26.1884 28.9031 25.164C28.8982 24.3844 28.9007 23.606 28.9019 22.8264C28.9533 21.835 27.9901 20.9648 27.0146 21.0272C25.9266 21.0419 24.8361 20.9856 23.7505 21.0591Z" fill="white"/>
<path d="M24.0063 23.0412C24.5081 22.9543 25.087 22.9127 25.5276 23.2187C26.0049 23.5369 26.3855 24.0718 26.3562 24.6666C26.4994 25.8525 25.1262 26.8598 24.0308 26.4278C23.1263 26.1683 22.578 25.1023 22.8779 24.2137C23.0382 23.6703 23.4764 23.2309 24.0063 23.0412Z" fill="white"/>
<path d="M16.6262 23.0342C17.1378 22.9485 17.7155 22.924 18.1561 23.2435C18.8708 23.6718 19.1866 24.6448 18.8439 25.4085C18.604 26.0278 17.9835 26.4207 17.3434 26.5137C16.4622 26.5835 15.5565 25.914 15.4427 25.0193C15.2824 24.1748 15.8245 23.3083 16.6262 23.0342Z" fill="white"/>
<path d="M19.1842 31.7591C18.9443 31.3748 18.8194 30.8816 19.0544 30.4655C19.5697 30.3969 19.5685 30.9832 19.7582 31.31C20.025 31.7408 20.4778 32.1373 21.0151 32.1067C21.4875 32.152 21.9514 31.895 22.2096 31.507C22.3895 31.1925 22.4691 30.8339 22.5915 30.4949C22.6918 30.4887 22.8926 30.4765 22.9929 30.4704C23.1312 30.676 23.2083 30.9122 23.1447 31.1594C22.9195 32.2511 21.7188 32.9586 20.6479 32.7958C20.0384 32.6771 19.5415 32.2475 19.1842 31.7591Z" fill="white"/>
<path d="M20.3713 0.778782C20.8878 0.55481 21.4068 0.854664 21.889 1.02111C24.4237 1.999 26.9828 2.91081 29.5077 3.91195C32.8404 5.14564 36.1645 6.40013 39.4788 7.68277C39.9316 7.89083 40.5081 7.94223 40.8079 8.38528C40.699 8.51257 40.617 8.67168 40.4689 8.7598C37.6123 10.1098 34.7093 11.3655 31.8637 12.7423C31.7964 12.5526 31.7597 12.3495 31.6569 12.1757C31.3203 11.8966 30.8858 11.7816 30.4856 11.6286C28.2704 10.7964 25.9339 10.2689 23.5718 10.1073C22.1178 9.94942 20.6492 10.0229 19.1891 10.029C16.1771 10.2591 13.1455 10.8037 10.3795 12.0606C10.0515 12.1708 10.0001 12.5245 9.91317 12.8109C8.47999 12.1757 7.07252 11.4817 5.62832 10.8686C5.5965 10.308 5.85352 9.79154 5.90737 9.24323C5.84984 8.9544 5.50104 9.03395 5.29175 9.04986C5.12775 9.51127 5.01515 9.98981 4.89643 10.4659C4.23431 10.3239 3.64806 9.96778 3.0251 9.71688C2.36175 9.39622 1.66535 9.14287 1.02158 8.78672C0.751103 8.65577 0.84779 8.27391 1.1097 8.19803C4.61861 6.76485 8.18259 5.46874 11.716 4.09554C14.6007 2.99036 17.4683 1.835 20.3713 0.778782Z" fill="#309CFF"/>
<path d="M16.4095 10.8734C18.5489 10.5234 20.7262 10.4255 22.8876 10.5821C25.798 10.8049 28.7219 11.3728 31.3936 12.5869C31.4242 12.899 31.4377 13.2135 31.434 13.5281C31.423 15.6564 31.4524 17.7848 31.4352 19.9131C30.8392 19.7503 30.2774 19.4872 29.6949 19.2877C27.6791 18.5986 25.5691 18.2266 23.4555 18.0075C22.2365 17.983 21.015 17.7774 19.7985 17.9573C17.2515 18.0393 14.7132 18.4909 12.2935 19.2926C11.6302 19.5019 11.0109 19.8311 10.3414 20.0184C10.3182 17.5694 10.3292 15.1203 10.328 12.6701C12.2409 11.7461 14.3264 11.2394 16.4095 10.8734Z" fill="#309CFF"/>
<path d="M10.6805 20.8088C13.2103 19.5788 16.0167 18.9962 18.8096 18.7881C19.5391 18.6902 20.2783 18.7416 21.0127 18.7245C24.2229 18.6376 27.4234 19.2912 30.4219 20.4147C30.5872 20.4894 30.8173 20.531 30.8197 20.7574C30.8577 21.7732 30.8222 22.7927 30.8344 23.8098C30.8515 25.3433 30.8197 26.9111 30.3155 28.3761C29.4538 30.9206 27.5727 33.1371 25.1274 34.2826C23.808 34.9056 22.3565 35.307 20.8878 35.2691C16.838 35.4392 12.8701 32.7736 11.4149 29.004C10.9302 27.7838 10.6597 26.4717 10.6805 25.1561C10.6781 23.707 10.6769 22.2579 10.6805 20.8088ZM12.4968 22.5834C12.4956 23.6458 12.4748 24.7093 12.5054 25.7717C12.7024 26.9221 13.8333 27.8523 15.007 27.7997C16.1819 27.785 17.3581 27.8229 18.5318 27.7813C19.2894 27.6271 19.9368 27.0641 20.2906 26.3873C20.517 25.9883 20.4729 25.5159 20.5451 25.0777C20.8805 25.0728 21.217 25.0741 21.5524 25.0777C21.3566 26.4558 22.567 27.7936 23.9427 27.7972C25.0074 27.8033 26.071 27.7936 27.1358 27.8009C28.2226 27.8976 29.2103 27.0078 29.5089 26.0079C29.5934 25.0753 29.5224 24.1341 29.5481 23.1978C29.5248 22.6618 29.6423 22.0719 29.3339 21.5958C28.9092 20.8724 28.1308 20.2678 27.2582 20.3058C26.0025 20.3254 24.7431 20.2715 23.4886 20.3315C22.545 20.5567 21.6662 21.351 21.5756 22.3533C21.5426 22.8502 21.5646 23.3508 21.5634 23.8489C21.2268 23.8783 20.889 23.8808 20.5512 23.8759C20.3677 23.1048 20.6981 22.231 20.233 21.5321C19.8071 20.8345 19.0471 20.2703 18.2026 20.3045C16.9799 20.318 15.7573 20.2874 14.5358 20.3192C13.4612 20.4943 12.4748 21.4489 12.4968 22.5834ZM19.1842 31.759C19.5415 32.2473 20.0384 32.6769 20.6479 32.7956C21.7188 32.9584 22.9195 32.251 23.1447 31.1593C23.2083 30.912 23.1312 30.6758 22.9929 30.4702C22.8926 30.4763 22.6918 30.4886 22.5915 30.4947C22.4691 30.8337 22.3895 31.1923 22.2096 31.5068C21.9514 31.8948 21.4875 32.1518 21.0151 32.1066C20.4778 32.1372 20.025 31.7406 19.7582 31.3098C19.5685 30.983 19.5697 30.3968 19.0544 30.4653C18.8194 30.8814 18.9443 31.3747 19.1842 31.759Z" fill="#309CFF"/>
<path d="M14.5688 21.0561C15.696 20.9887 16.8293 21.0414 17.959 21.0255C18.7031 20.9838 19.4509 21.4808 19.6761 22.1967C19.8817 22.794 19.8059 23.4341 19.8181 24.0546C19.8059 24.6727 19.8817 25.3152 19.6565 25.9064C19.3824 26.6272 18.5918 27.0593 17.8391 27.0385C16.9358 27.0385 16.0326 27.036 15.1281 27.0397C14.4036 27.0691 13.6179 26.6921 13.3302 25.9981C13.0059 25.3556 13.1528 24.6213 13.1222 23.9322C13.1442 23.3239 13.0316 22.6802 13.2947 22.1074C13.5053 21.5713 14.0107 21.1723 14.5688 21.0561ZM16.6262 23.0339C15.8245 23.308 15.2823 24.1745 15.4427 25.019C15.5565 25.9137 16.4622 26.5832 17.3434 26.5134C17.9835 26.4204 18.604 26.0275 18.8439 25.4082C19.1866 24.6445 18.8708 23.6715 18.156 23.2432C17.7154 22.9237 17.1378 22.9482 16.6262 23.0339Z" fill="#309CFF"/>
<path d="M23.7506 21.0588C24.8362 20.9853 25.9267 21.0416 27.0147 21.0269C27.9902 20.9645 28.9534 21.8347 28.902 22.8261C28.9007 23.6057 28.8983 24.3841 28.9032 25.1637C28.9901 26.1881 28.0036 27.0607 27.0159 27.0473C26.0736 27.0509 25.1299 27.0485 24.1875 27.0485C23.343 27.0705 22.5194 26.4635 22.3076 25.6435C22.277 24.5444 22.2403 23.4331 22.3309 22.3377C22.5059 21.6842 23.0897 21.175 23.7506 21.0588ZM24.0064 23.0415C23.4764 23.2312 23.0383 23.6706 22.878 24.214C22.5781 25.1025 23.1264 26.1685 24.0309 26.428C25.1263 26.86 26.4995 25.8528 26.3563 24.6668C26.3856 24.072 26.005 23.5371 25.5277 23.2189C25.0871 22.913 24.5082 22.9546 24.0064 23.0415Z" fill="#309CFF"/>
</svg>
