<svg width="11" height="10" viewBox="0 0 11 10" fill="none" xmlns="http://www.w3.org/2000/svg">
<path d="M10.9967 4.9338C10.9113 3.92862 10.5379 2.96715 9.91923 2.15916C9.30057 1.35117 8.46158 0.729219 7.49803 0.36432C6.53448 -0.000579024 5.48521 -0.0937232 4.47001 0.0955217C3.45481 0.284767 2.51459 0.748774 1.7567 1.43457C0.740818 2.34335 0.114483 3.59329 0.00326341 4.9338C-0.00679135 5.04027 0.0064517 5.14761 0.0421151 5.2487C0.0777786 5.3498 0.135048 5.44235 0.21013 5.52021C0.283186 5.59858 0.372141 5.66126 0.471346 5.70429C0.570551 5.74732 0.67784 5.76975 0.786401 5.77016H5.10597V8.46187C5.10597 8.86981 5.27202 9.26104 5.56761 9.54949C5.86319 9.83795 6.26408 10 6.68209 10C7.10011 10 7.501 9.83795 7.79658 9.54949C8.09216 9.26104 8.25822 8.86981 8.25822 8.46187C8.25822 8.35989 8.21671 8.26208 8.14281 8.18997C8.06892 8.11786 7.96869 8.07734 7.86419 8.07734C7.75968 8.07734 7.65946 8.11786 7.58557 8.18997C7.51167 8.26208 7.47016 8.35989 7.47016 8.46187C7.47016 8.66584 7.38713 8.86146 7.23934 9.00568C7.09155 9.14991 6.8911 9.23094 6.68209 9.23094C6.47309 9.23094 6.27264 9.14991 6.12485 9.00568C5.97706 8.86146 5.89403 8.66584 5.89403 8.46187V5.77016H10.2136C10.3222 5.76975 10.4294 5.74732 10.5287 5.70429C10.6279 5.66126 10.7168 5.59858 10.7899 5.52021C10.865 5.44235 10.9222 5.3498 10.9579 5.2487C10.9935 5.14761 11.0068 5.04027 10.9967 4.9338ZM0.786401 5.00109C0.880356 3.84401 1.4177 2.76399 2.29131 1.97633C3.16492 1.18867 4.31062 0.751235 5.5 0.751235C6.68938 0.751235 7.83508 1.18867 8.70869 1.97633C9.5823 2.76399 10.1196 3.84401 10.2136 5.00109H0.786401Z" fill="black"/>
</svg>
